<svg xmlns="http://www.w3.org/2000/svg"  viewBox="0 0 100 100" width="500px" height="500px" baseProfile="basic"><circle cx="50" cy="50" r="36.5" fill="#fff4ce"/><path fill="none" stroke="#231f20" stroke-linecap="round" stroke-linejoin="round" stroke-miterlimit="10" d="M10.207,72.819 c7.33,3.32,16.751,5.869,21.832,6.411c10.703,1.143,17.383-1.808,17.383-1.808"/><path fill="none" stroke="#231f20" stroke-linecap="round" stroke-linejoin="round" stroke-miterlimit="10" d="M36.563,76.431 c0,0,6.182,2.288,15.111,0.605"/><path fill="none" stroke="#231f20" stroke-linecap="round" stroke-linejoin="round" stroke-miterlimit="10" d="M35.55,60.252 c2.069-2.685,4.321-5.888,4.492-9.234c0.219-4.282-4.115-5.762-6.2-2.002c-2.244,4.046-13.723,3.998-21.645-0.04"/><path fill="none" stroke="#231f20" stroke-linecap="round" stroke-linejoin="round" stroke-miterlimit="10" d="M39.968,72.171 c0,0,6.781,2.842,10.647,4.538c3.209,1.408,5.521-1.84,2.396-4.529c-4.644-3.996-10.664-7.866-17.312-11.831"/><path fill="none" stroke="#231f20" stroke-linecap="round" stroke-linejoin="round" stroke-miterlimit="10" d="M14.549,39.778 c0,0,5,4.12,11,5.06"/><path fill="none" stroke="#231f20" stroke-linecap="round" stroke-linejoin="round" stroke-miterlimit="10" d="M25.5,51.5v-23h57v43 c0,1.657-1.343,3-3,3h-25"/><rect width="67" height="8" x="20.5" y="20.5" fill="none" stroke="#231f20" stroke-linecap="round" stroke-linejoin="round" stroke-miterlimit="10"/><path fill="none" stroke="#231f20" stroke-linecap="round" stroke-linejoin="round" stroke-miterlimit="10" d="M60,37.5H48 c-1.381,0-2.5-1.119-2.5-2.5v0c0-1.381,1.119-2.5,2.5-2.5h12c1.381,0,2.5,1.119,2.5,2.5v0C62.5,36.381,61.381,37.5,60,37.5z"/></svg>